# Cosmic Ark mothership - original hand-authored low-poly mesh
mtllib cosmicark-assets.mtl
o cosmic_ark
v -2.80 -0.38 -1.35
v  2.80 -0.38 -1.35
v  2.80 -0.38  1.35
v -2.80 -0.38  1.35
v -2.20  0.35 -1.05
v  2.20  0.35 -1.05
v  2.20  0.35  1.05
v -2.20  0.35  1.05
v -1.15  0.35 -0.72
v  1.15  0.35 -0.72
v  1.15  1.05  0.10
v -1.15  1.05  0.10
v -0.78  0.62 -0.58
v  0.78  0.62 -0.58
v  0.62  0.91 -0.12
v -0.62  0.91 -0.12
v -3.55 -0.16 -0.24
v -2.70 -0.16 -0.24
v -2.70  0.15  0.24
v -3.55  0.15  0.24
v  2.70 -0.16 -0.24
v  3.55 -0.16 -0.24
v  3.55  0.15  0.24
v  2.70  0.15  0.24
v -0.24 -0.16 -2.10
v  0.24 -0.16 -2.10
v  0.24  0.15 -1.25
v -0.24  0.15 -1.25
v -0.24 -0.16  1.25
v  0.24 -0.16  1.25
v  0.24  0.15  2.10
v -0.24  0.15  2.10
usemtl ark_crimson
f 1 2 6 5
f 2 3 7 6
f 3 4 8 7
f 4 1 5 8
f 5 6 7 8
f 1 4 3 2
usemtl ark_gold
f 9 10 11 12
f 5 9 12 8
f 10 6 7 11
f 8 12 11 7
f 9 5 6 10
usemtl window_blue
f 13 14 15 16
f 9 13 16 12
f 14 10 11 15
f 16 15 11 12
usemtl engine_dark
f 17 18 19 20
f 21 22 23 24
f 25 26 27 28
f 29 30 31 32
usemtl ark_crimson
f 17 20 19 18
f 21 24 23 22
f 25 28 27 26
f 29 32 31 30
