# Alpha Ro beastie - original hand-authored low-poly mesh
mtllib cosmicark-assets.mtl
o beastie
v -0.62 -0.32 -0.35
v  0.62 -0.32 -0.35
v  0.62  0.32 -0.35
v -0.62  0.32 -0.35
v -0.62 -0.32  0.35
v  0.62 -0.32  0.35
v  0.62  0.32  0.35
v -0.62  0.32  0.35
v -0.94 -0.55  0.00
v -0.52 -0.20  0.00
v  0.52 -0.20  0.00
v  0.94 -0.55  0.00
v -0.88  0.56  0.00
v -0.48  0.22  0.00
v  0.48  0.22  0.00
v  0.88  0.56  0.00
v -0.35  0.38 -0.42
v -0.15  0.68 -0.40
v  0.15  0.68 -0.40
v  0.35  0.38 -0.42
usemtl creature_lime
f 1 2 3 4
f 5 8 7 6
f 1 5 6 2
f 4 3 7 8
f 1 4 8 5
f 2 6 7 3
f 9 10 5
f 11 12 6
f 13 14 8
f 15 16 7
usemtl creature_yellow
f 17 18 19 20
