# Faceted meteor - original hand-authored low-poly mesh
mtllib cosmicark-assets.mtl
o meteor
v -0.86  0.05 -0.44
v -0.35  0.72 -0.52
v  0.48  0.60 -0.36
v  0.88  0.02 -0.18
v  0.50 -0.68 -0.45
v -0.42 -0.73 -0.35
v -0.64  0.03  0.62
v -0.22  0.68  0.52
v  0.58  0.52  0.44
v  0.72 -0.14  0.58
v  0.25 -0.72  0.48
v -0.52 -0.55  0.40
usemtl meteor_rock
f 1 2 7
f 2 8 7
f 2 3 8
f 3 9 8
f 3 4 9
f 4 10 9
f 4 5 10
f 5 11 10
f 5 6 11
f 6 12 11
f 6 1 12
f 1 7 12
usemtl meteor_glow
f 7 8 9 10
f 7 10 11 12
f 1 6 5 4
f 1 4 3 2
