# Atlantis shuttle - original hand-authored low-poly mesh
mtllib cosmicark-assets.mtl
o rescue_shuttle
v -1.45 -0.32 -0.85
v  1.45 -0.32 -0.85
v  1.20 -0.32  0.85
v -1.20 -0.32  0.85
v -0.92  0.18 -0.58
v  0.92  0.18 -0.58
v  0.72  0.24  0.58
v -0.72  0.24  0.58
v -0.48  0.18 -0.38
v  0.48  0.18 -0.38
v  0.36  0.72  0.18
v -0.36  0.72  0.18
v -1.90 -0.18  0.58
v -1.12 -0.18  0.58
v -1.10  0.04  1.15
v -1.62  0.04  1.15
v  1.12 -0.18  0.58
v  1.90 -0.18  0.58
v  1.62  0.04  1.15
v  1.10  0.04  1.15
usemtl shuttle_violet
f 1 2 6 5
f 2 3 7 6
f 3 4 8 7
f 4 1 5 8
f 5 6 7 8
f 1 4 3 2
f 13 14 15 16
f 17 18 19 20
usemtl window_blue
f 9 10 11 12
f 5 9 12 8
f 10 6 7 11
f 12 11 7 8
usemtl beam_cyan
f 14 7 15
f 17 19 7
