# Planetary defense turret - original hand-authored low-poly mesh
mtllib cosmicark-assets.mtl
o planet_turret
v -0.72 -0.42 -0.60
v  0.72 -0.42 -0.60
v  0.72  0.22 -0.60
v -0.72  0.22 -0.60
v -0.72 -0.42  0.60
v  0.72 -0.42  0.60
v  0.72  0.22  0.60
v -0.72  0.22  0.60
v -0.34  0.22 -0.34
v  0.34  0.22 -0.34
v  0.34  0.78 -0.34
v -0.34  0.78 -0.34
v -0.34  0.22  0.34
v  0.34  0.22  0.34
v  0.34  0.78  0.34
v -0.34  0.78  0.34
v -0.18  0.48 -1.20
v  0.18  0.48 -1.20
v  0.18  0.72 -0.24
v -0.18  0.72 -0.24
usemtl turret_magenta
f 1 2 3 4
f 5 8 7 6
f 1 5 6 2
f 4 3 7 8
f 1 4 8 5
f 2 6 7 3
f 9 10 11 12
f 13 16 15 14
f 9 13 14 10
f 12 11 15 16
usemtl engine_dark
f 17 18 19 20
